<svg width="256" height="256" viewBox="0 0 256 256" fill="none" xmlns="http://www.w3.org/2000/svg">
  <defs>
    <filter id="shadow" x="0" y="0" width="256" height="256" filterUnits="userSpaceOnUse" color-interpolation-filters="sRGB">
      <feFlood flood-opacity="0" result="BackgroundImageFix"/>
      <feColorMatrix in="SourceAlpha" type="matrix" values="0 0 0 0 0 0 0 0 0 0 0 0 0 0 0 0 0 0 127 0" result="hardAlpha"/>
      <feOffset dy="4"/>
      <feGaussianBlur stdDeviation="8"/>
      <feComposite in2="hardAlpha" operator="out"/>
      <feColorMatrix type="matrix" values="0 0 0 0 0 0 0 0 0 0 0 0 0 0 0 0 0 0 0.25 0"/>
      <feBlend mode="normal" in2="BackgroundImageFix" result="effect1_dropShadow_1_1"/>
      <feBlend mode="normal" in="SourceGraphic" in2="effect1_dropShadow_1_1" result="shape"/>
    </filter>
    <linearGradient id="sphereGradient" x1="128" y1="20" x2="128" y2="236" gradientUnits="userSpaceOnUse">
      <stop stop-color="#3B82F6"/>
      <stop offset="1" stop-color="#8B5CF6"/>
    </linearGradient>
    <filter id="glow" x="20" y="20" width="216" height="216" filterUnits="userSpaceOnUse">
      <feGaussianBlur stdDeviation="4" result="blur"/>
      <feComposite in="SourceGraphic" in2="blur" operator="over"/>
    </filter>
  </defs>
  <g filter="url(#shadow)">
    <circle cx="128" cy="128" r="100" fill="url(#sphereGradient)"/>
    <circle cx="128" cy="128" r="100" stroke="white" stroke-width="2" stroke-opacity="0.2"/>
  </g>
  <g style="mix-blend-mode: overlay; filter: url(#glow)" opacity="0.8">
    <path d="M128 65C150.091 65 168 82.9086 168 105H150C150 92.8497 140.15 83 128 83C115.85 83 106 92.8497 106 105H88C88 82.9086 105.909 65 128 65Z" fill="white" opacity="0.6"/>
    <path d="M128 191C105.909 191 88 173.091 88 151H106C106 163.15 115.85 173 128 173C140.15 173 150 163.15 150 151H168C168 173.091 150.091 191 128 191Z" fill="white" opacity="0.6"/>
  </g>
  <!-- Sync Arrows -->
  <path d="M128 55C148.118 55 166.248 63.1613 179.311 76.2238L192 63.5353V106H149.535L162.224 93.3112C153.253 84.3402 141.285 78.8 128 78.8C100.828 78.8 78.8 100.828 78.8 128H56.3C56.3 88.401 88.401 56.3 128 56.3V55Z" fill="white" />
  <path d="M128 201C107.882 201 89.7523 192.839 76.6888 179.776L64 192.465V150H106.465L93.7762 162.689C102.747 171.66 114.715 177.2 128 177.2C155.172 177.2 177.2 155.172 177.2 128H199.7C199.7 167.599 167.599 199.7 128 199.7V201Z" fill="white" />
</svg>
